<?xml version="1.0" encoding="UTF-8"?>
<svg baseProfile="tiny" version="1.2" viewBox="0 0 120 120" xml:space="preserve" xmlns="http://www.w3.org/2000/svg">
	<path d="m60.287 51.216c2.515 8.22 5.837 15.789 9.958 22.706 7.772 13.259 16.297 21.887 25.59 25.901-9.674 10.792-21.445 16.186-35.282 16.186-13.891 0-25.714-5.394-35.481-16.186 3.21-1.444 6.242-3.355 9.09-5.731 2.836-2.364 5.593-5.242 8.266-8.628 2.66-3.392 5.229-7.231 7.708-11.542 3.99-6.965 7.369-14.535 10.151-22.706zm6.769-46.374c11.112 1.596 20.702 6.893 28.779 15.889 9.722 11.04 14.589 24.26 14.589 39.699 0 9.182-1.741 17.658-5.211 25.396-8.997-3.24-16.911-10.665-23.762-22.283-9.589-16.007-14.395-35.578-14.395-58.701zm-13.862 0c0 5.568-0.302 11.092-0.907 16.578-0.617 5.493-1.484 10.617-2.618 15.379-1.116 4.77-2.618 9.447-4.48 14.051-1.871 4.598-3.948 8.824-6.249 12.693-6.823 11.322-14.61 18.65-23.38 21.987-3.419-7.643-5.136-16.011-5.136-25.101 0-15.438 4.879-28.659 14.647-39.699 2.645-2.899 5.462-5.442 8.431-7.612 2.969-2.189 6.073-3.96 9.311-5.336 3.235-1.381 6.687-2.354 10.381-2.94z" fill="#5EC62E"/>
</svg>
