<?xml version="1.0" encoding="utf-8"?>
<!-- Generator: Adobe Illustrator 16.0.0, SVG Export Plug-In . SVG Version: 6.00 Build 0)  -->
<!DOCTYPE svg PUBLIC "-//W3C//DTD SVG 1.1 Tiny//EN" "http://www.w3.org/Graphics/SVG/1.1/DTD/svg11-tiny.dtd">
<svg version="1.1" baseProfile="tiny" id="Layer_1" xmlns="http://www.w3.org/2000/svg" xmlns:xlink="http://www.w3.org/1999/xlink"
	 x="0px" y="0px" width="1170.342px" height="224.446px" viewBox="0 0 1170.342 224.446" xml:space="preserve">
<path fill="#777779" d="M110.349,209.405c-8.779,4.604-18.091,7.416-27.899,8.467c-9.825,1.035-18.5,1.567-26.022,1.567
	c-15.048,0-28.212-4.076-39.499-12.229C5.644,199.063,0,185.575,0,166.772c0-17.555,5.114-30.092,15.359-37.617
	c10.238-7.521,23.3-12.542,39.192-15.051c2.083,0,4.594-0.311,7.521-0.94c2.919-0.625,6.271-1.147,10.026-1.565
	c18.393-2.506,27.588-7.929,27.588-16.297c0-6.273-3.242-10.35-9.715-12.224c-6.492-1.886-12.438-2.824-17.873-2.824
	c-5.855,0-11.074,0.848-15.67,2.504c-4.604,1.674-7.943,4.817-10.034,9.409H4.385c1.667-12.946,7.532-23.609,17.557-31.978
	c11.288-9.606,27.374-14.421,48.28-14.421c23.4,0,40.954,3.976,52.665,11.913c12.117,8.369,18.184,20.065,18.184,35.113v57.052
	c0,16.723-3.041,29.783-9.093,39.186C125.917,198.432,118.704,205.234,110.349,209.405 M100.313,132.291
	c-5.855,2.931-14.005,5.644-24.45,8.147l-14.418,3.141c-7.521,2.1-12.96,4.808-16.3,8.152c-2.934,4.599-4.387,9.188-4.387,13.787
	c0,6.271,1.879,11.287,5.637,15.045c3.765,3.35,9.186,5.012,16.298,5.012c11.701,0,20.903-3.334,27.592-10.023
	c6.68-6.68,10.029-15.877,10.029-27.588V132.291z"/>
<path fill="#777779" d="M264.102,0h21.322c5.848,0,10.862,2.19,15.046,6.58c4.176,4.39,6.273,9.312,6.273,14.732v122.267
	c0,29.678-8.575,49.74-25.712,60.192c-17.147,10.442-35.733,15.668-55.798,15.668c-10.877,0-21.533-1.791-31.973-5.331
	c-10.452-3.549-18.813-9.301-25.082-17.235c-12.129-15.468-18.181-36.581-18.181-63.328c0-26.338,6.052-47.437,18.181-63.323
	c12.542-16.297,28.626-24.45,48.275-24.45c10.444,0,19.642,2.093,27.588,6.264c8.354,5.017,15.048,11.5,20.06,19.436V0z
	 M192.63,131.663c0,16.724,3.138,29.47,9.409,38.244c6.264,8.779,15.248,13.16,26.958,13.16c11.278,0,20.055-4.381,26.327-13.16
	c5.848-8.774,8.777-21.521,8.777-38.244c0-15.045-3.13-26.958-9.399-35.735c-6.694-8.361-15.678-12.542-26.96-12.542
	c-10.873,0-19.438,4.392-25.702,13.171C195.769,104.915,192.63,116.618,192.63,131.663"/>
<path fill="#5EC62E" d="M320.681,216.3v-80.873c0-16.301,2.404-29.99,7.212-41.071c4.801-11.065,11.378-19.954,19.744-26.64
	c7.943-6.271,17.243-10.87,27.906-13.796c10.656-2.919,21.623-4.392,32.916-4.392h3.133h3.131v44.522h-14.416
	c-12.129,0-21.11,2.926-26.963,8.772c-5.855,5.86-8.779,15.048-8.779,27.592V216.3H320.681z"/>
<path fill="#5EC62E" d="M541.522,164.891h31.355c-4.608,17.55-13.388,30.942-26.339,40.126
	c-12.96,9.615-29.255,14.423-48.895,14.423c-23.833,0-42.435-7.734-55.808-23.198c-13.379-15.055-20.067-36.566-20.067-64.578
	c0-26.749,6.482-47.65,19.438-62.698c13.376-15.455,31.978-23.194,55.81-23.194c25.075,0,44.505,7.523,58.302,22.569
	c13.378,15.471,20.063,36.985,20.063,64.578v4.39v2.504c0,2.1-0.214,3.553-0.627,4.39H466.291
	c0.409,12.965,3.547,22.571,9.402,28.842c5.43,6.689,13.575,10.024,24.45,10.024c7.107,0,13.169-1.453,18.186-4.381
	c1.254-0.408,2.404-1.148,3.449-2.194c1.036-1.045,2.195-2.194,3.439-3.449c0.418-1.254,1.986-2.917,4.708-5.017
	C532.638,165.945,536.505,164.891,541.522,164.891 M466.291,115.986h63.948c-0.841-11.281-3.758-19.635-8.774-25.075
	c-5.44-5.853-13.169-8.78-23.203-8.78c-9.197,0-16.716,2.927-22.568,8.78C469.837,96.764,466.7,105.124,466.291,115.986"/>
<path fill="#5EC62E" d="M704.688,164.891h31.342c-4.6,17.55-13.379,30.942-26.33,40.126c-12.959,9.615-29.255,14.423-48.895,14.423
	c-23.83,0-42.435-7.734-55.808-23.198c-13.383-15.045-20.062-36.566-20.062-64.578c0-26.749,6.476-47.65,19.44-62.698
	c13.378-15.455,31.978-23.194,55.798-23.194c25.075,0,44.515,7.523,58.307,22.564c7.525,9.203,12.95,19.861,16.305,31.978h-43.897
	c-2.09-4.171-4.181-7.307-6.262-9.402c-5.439-5.853-13.169-8.78-23.198-8.78c-9.197,0-16.728,2.927-22.571,8.78
	c-7.525,8.359-11.283,22.16-11.283,41.379c0,19.227,3.758,32.813,11.283,40.752c5.426,6.689,13.578,10.034,24.457,10.034
	c7.094,0,13.16-1.463,18.177-4.391c1.25-0.408,2.404-1.148,3.449-2.194c1.046-1.045,2.195-2.194,3.449-3.449
	c0.827-1.254,2.499-2.917,5.013-5.017C695.909,165.937,699.667,164.891,704.688,164.891"/>
<path fill="#5EC62E" d="M912.512,216.3v-80.873c0-16.301,2.403-29.99,7.211-41.071c4.799-11.065,11.383-19.954,19.754-26.64
	c7.934-6.271,17.236-10.87,27.902-13.796c10.646-2.919,21.63-4.392,32.918-4.392h3.126h3.145v44.522h-14.433
	c-12.119,0-21.107,2.926-26.956,8.772c-5.862,5.86-8.774,15.048-8.774,27.592V216.3H912.512z"/>
<path fill="#5EC62E" d="M1127.713,0h21.322c5.853,0,10.859,2.19,15.05,6.58c4.167,4.39,6.257,9.312,6.257,14.732v122.267
	c0,29.678-8.565,49.74-25.701,60.192c-17.137,10.442-35.736,15.668-55.799,15.668c-10.875,0-21.535-1.791-31.973-5.331
	c-10.452-3.549-18.813-9.301-25.08-17.235c-12.128-15.468-18.181-36.581-18.181-63.328c0-26.338,6.053-47.437,18.181-63.323
	c12.538-16.297,28.624-24.45,48.273-24.45c10.451,0,19.649,2.093,27.588,6.264c8.356,5.017,15.051,11.5,20.062,19.436V0z
	 M1056.238,131.663c0,16.724,3.14,29.47,9.401,38.244c6.281,8.779,15.26,13.16,26.966,13.16c11.288,0,20.062-4.381,26.334-13.16
	c5.848-8.774,8.774-21.521,8.774-38.244c0-15.045-3.131-26.958-9.406-35.735c-6.689-8.361-15.668-12.542-26.956-12.542
	c-10.875,0-19.431,4.392-25.712,13.171C1059.377,104.915,1056.238,116.618,1056.238,131.663"/>
<g>
	<path fill="#5EC62E" d="M822.256,122.618c3.952,12.918,9.174,24.818,15.648,35.688c12.22,20.833,25.617,34.392,40.221,40.705
		c-15.207,16.961-33.702,25.436-55.451,25.436c-21.83,0-40.41-8.475-55.76-25.436c5.045-2.271,9.811-5.273,14.285-9.008
		c4.456-3.715,8.789-8.237,12.988-13.559c4.182-5.33,8.22-11.368,12.115-18.139C812.574,147.355,817.885,135.46,822.256,122.618z
		 M832.893,49.741c17.469,2.511,32.538,10.834,45.232,24.97c15.278,17.35,22.923,38.127,22.923,62.387
		c0,14.434-2.731,27.754-8.186,39.912c-14.139-5.089-26.581-16.762-37.342-35.019C840.447,116.837,832.893,86.08,832.893,49.741z
		 M811.111,49.741c0,8.751-0.476,17.431-1.425,26.056c-0.97,8.632-2.333,16.685-4.115,24.167c-1.752,7.495-4.113,14.846-7.04,22.08
		c-2.94,7.226-6.204,13.867-9.82,19.948c-10.722,17.796-22.96,29.312-36.742,34.558c-5.373-12.016-8.071-25.166-8.071-39.451
		c0-24.26,7.667-45.038,23.018-62.387c4.156-4.554,8.584-8.549,13.25-11.963c4.665-3.439,9.544-6.221,14.632-8.383
		C799.879,52.195,805.305,50.663,811.111,49.741z"/>
</g>
</svg>
